<?xml version="1.0" standalone="no"?>
<!DOCTYPE svg PUBLIC "-//W3C//DTD SVG 20010904//EN"
 "http://www.w3.org/TR/2001/REC-SVG-20010904/DTD/svg10.dtd">
<svg version="1.0" xmlns="http://www.w3.org/2000/svg"
 width="256.000000pt" height="256.000000pt" viewBox="0 0 256.000000 256.000000"
 preserveAspectRatio="xMidYMid meet">
<metadata>
Created by potrace 1.15, written by Peter Selinger 2001-2017
</metadata>
<g transform="translate(0.000000,256.000000) scale(0.100000,-0.100000)"
fill="#000000" stroke="none">
<path d="M1155 2044 c-997 -348 -1156 -407 -1153 -427 2 -17 109 -61 613 -258
336 -131 624 -238 641 -238 22 -1 787 289 1152 436 9 4 12 -54 12 -270 0 -231
-2 -276 -14 -280 -8 -3 -22 -20 -31 -38 -20 -38 -14 -83 16 -115 l21 -23 -20
-78 c-29 -107 -36 -182 -20 -213 7 -14 30 -33 51 -43 31 -16 42 -17 72 -7 56
18 69 47 62 138 -3 42 -14 104 -25 138 l-19 61 24 27 c33 39 32 104 -3 139
l-25 26 3 310 3 309 -610 215 c-335 118 -619 217 -630 221 -11 3 -65 -10 -120
-30z"/>
<path d="M392 1167 c3 -190 4 -205 27 -252 33 -67 120 -151 212 -202 90 -51
251 -106 379 -130 128 -23 371 -23 499 1 293 54 516 181 590 336 25 53 26 63
29 254 3 162 1 198 -10 193 -180 -74 -844 -327 -860 -327 -12 0 -200 69 -417
154 -218 85 -409 159 -424 165 l-28 11 3 -203z"/>
</g>
</svg>
